<svg width="831" height="823" viewBox="0 0 831 823" fill="none" xmlns="http://www.w3.org/2000/svg">
<g clip-path="url(#clip0_132_600)">
<path d="M823.883 411.499C823.937 458.33 815.971 504.826 800.331 548.975C800.322 549.004 800.312 549.023 800.302 549.053C800.233 549.258 800.165 549.444 800.087 549.649V549.659C796.75 559.023 793.084 568.23 789.089 577.281C779.009 600.105 766.871 621.966 752.826 642.593C749.421 647.617 745.895 652.56 742.248 657.421C738.237 662.797 734.098 668.065 729.832 673.226C725.898 677.986 721.86 682.655 717.718 687.232C712.796 692.686 707.728 698 702.512 703.174C690.238 715.386 677.205 726.812 663.49 737.384C661.083 739.251 658.65 741.086 656.191 742.887C650.467 747.11 644.628 751.182 638.676 755.105C625.583 763.751 612.002 771.636 598 778.72C595.584 779.952 593.147 781.164 590.701 782.337C581.239 786.901 571.585 791.101 561.738 794.936C558.93 796.04 556.112 797.105 553.264 798.132C552.785 798.318 552.305 798.494 551.816 798.66C518.051 810.833 482.83 818.516 447.06 821.512C444.574 821.737 442.086 821.926 439.594 822.079C436.952 822.265 434.307 822.414 431.658 822.528C429.564 822.636 427.48 822.714 425.376 822.773C424.946 822.792 424.506 822.812 424.075 822.812C421.247 822.9 418.41 822.955 415.562 822.978C414.359 822.988 413.155 822.998 411.942 822.998C411.374 822.998 410.807 822.998 410.239 822.988C402.03 822.958 393.882 822.691 385.797 822.186C385.63 822.177 385.464 822.157 385.298 822.157C382.401 821.962 379.515 821.756 376.638 821.502C366.393 820.642 356.26 819.404 346.237 817.788C343.927 817.426 341.625 817.035 339.329 816.615C329.358 814.856 319.517 812.734 309.808 810.252C306.921 809.519 304.051 808.753 301.197 807.955C284.726 803.376 268.558 797.768 252.791 791.163C243.74 787.37 234.859 783.272 226.147 778.867C222.224 776.882 218.339 774.836 214.494 772.728C213.447 772.161 212.409 771.585 211.372 771.008C203.799 766.785 196.382 762.335 189.122 757.656C183.172 753.835 177.334 749.86 171.607 745.732C170.902 745.243 170.207 744.735 169.513 744.226C165.119 741.03 160.798 737.753 156.548 734.393C147.301 727.072 138.384 719.38 129.796 711.316C123.857 705.745 118.09 699.998 112.496 694.074C79.904 659.643 53.4993 619.855 34.4429 576.46C30.392 567.223 26.6737 557.817 23.2882 548.242C23.2772 548.22 23.2705 548.197 23.2686 548.173C7.8183 504.261 -0.0498162 458.045 0.000237315 411.499C0.000237315 238.728 106.596 90.823 257.674 29.8313C311.515 8.18732 369.318 -1.87902 427.315 0.288472C485.312 2.45597 542.201 16.8086 594.273 42.4108C730.321 109.59 823.883 249.636 823.883 411.499Z" fill="#F2F2F2"/>
<path d="M594.272 42.4108V562.414H257.674V29.8313C311.515 8.18732 369.318 -1.87902 427.315 0.288472C485.312 2.45597 542.2 16.8086 594.272 42.4108Z" fill="white"/>
<path d="M338.674 279.545C347.806 264.459 358.625 248.351 375.57 243.425C395.194 237.721 415.352 249.053 432.451 260.236C483.586 293.68 532.831 329.923 579.958 368.801L579.907 369.386C543.216 366.859 506.525 364.331 469.835 361.804C443.326 359.978 415.906 357.9 392.479 345.373C383.59 340.619 374.924 334.269 364.851 333.827C352.335 333.277 341.423 342.008 332.847 351.131C282.119 405.091 267.439 487.61 210.527 535.018C246.414 446.61 289.264 361.184 338.674 279.545Z" fill="#F2F2F2"/>
<path d="M618.892 55.6741C618.041 55.1072 617.18 54.5696 616.328 54.0222C591.721 38.301 565.345 25.5292 537.746 15.9708L531.347 104.155H490.779V3.09801C488.225 2.5702 485.652 2.07171 483.079 1.60254V104.155H434.869C408.329 104.155 382.875 93.623 364.109 74.8766C345.342 56.1301 334.799 30.7044 334.799 4.19285V4.19275C332.216 4.74989 329.652 5.34612 327.089 5.98145V104.155H287.822L281.726 20.0662C253.365 30.9317 226.439 45.2202 201.549 62.6139C201.119 62.9071 200.688 63.2101 200.267 63.5033C198.105 65.0183 195.972 66.5627 193.849 68.1266V558.983H309.574L307.529 530.687L296.276 220.889H522.883L511.631 530.687L509.586 558.983H624.029V59.0756C622.327 57.9222 620.614 56.7884 618.892 55.6741ZM327.089 195.232H294.417L288.38 111.857H327.089V195.232ZM483.079 195.232H428.205V193.58C428.205 192.786 428.049 192 427.744 191.266C427.44 190.533 426.993 189.866 426.431 189.305C425.868 188.744 425.2 188.299 424.466 187.996C423.731 187.693 422.943 187.538 422.148 187.539H398.293C397.499 187.539 396.712 187.695 395.979 187.999C395.245 188.302 394.578 188.747 394.016 189.308C393.455 189.869 393.009 190.535 392.706 191.268C392.402 192.001 392.246 192.787 392.246 193.58V195.232H334.799V111.857H483.079V195.232ZM490.779 195.232V111.857H530.789L524.752 195.232H490.779Z" fill="#3F3D56"/>
<path d="M800.332 548.972C800.323 549.002 800.313 549.021 800.303 549.05C800.234 549.256 800.166 549.442 800.088 549.647V549.657C796.751 559.02 793.085 568.228 789.089 577.279L34.4438 576.458C30.3929 567.221 26.6747 557.815 23.2891 548.239C23.2781 548.218 23.2715 548.195 23.2695 548.171L800.332 548.972Z" fill="#3F3D56"/>
<path d="M518.314 552.188H386.219V569.782H518.314V552.188Z" fill="white"/>
<path d="M211.362 724.482C211.832 720.348 212.481 716.239 213.31 712.157C217.838 690.021 227.556 669.272 241.666 651.615C249.739 652.064 256.813 650.833 257.488 635.214C257.615 632.438 259.68 630.023 260.13 627.287C259.367 627.394 258.574 627.453 257.811 627.502C257.566 627.511 257.312 627.531 257.077 627.541H256.989C256.142 627.58 255.301 627.374 254.569 626.947C253.836 626.519 253.243 625.889 252.861 625.133C252.479 624.376 252.325 623.525 252.417 622.683C252.509 621.841 252.843 621.043 253.379 620.386C253.711 619.985 254.044 619.575 254.377 619.164C254.876 618.529 255.394 617.913 255.903 617.287C255.962 617.219 256.011 617.16 256.069 617.092C256.647 616.378 257.224 615.665 257.811 614.951C256.75 613.306 255.324 611.928 253.643 610.924C247.821 607.513 239.787 609.878 235.58 615.137C231.363 620.396 230.56 627.785 232.028 634.353C233.28 639.983 236.01 645.144 239.073 650.051C238.76 650.452 238.427 650.843 238.114 651.253C232.343 658.669 227.313 666.63 223.094 675.024C224.288 665.709 209.699 632.086 204.053 624.96C197.272 616.408 183.378 620.141 182.184 630.991C182.174 631.089 182.155 631.196 182.145 631.304C182.986 631.773 183.808 632.271 184.611 632.809C185.619 633.482 186.4 634.443 186.851 635.567C187.303 636.691 187.404 637.924 187.142 639.107C186.88 640.289 186.266 641.365 185.381 642.192C184.497 643.02 183.382 643.562 182.184 643.746L182.057 643.766C170.843 659.767 206.803 701.415 215.814 692.071C213.549 698.43 211.741 704.944 210.403 711.561C209.203 717.397 208.367 723.303 207.899 729.242C207.328 736.724 207.364 744.238 208.006 751.714C207.988 751.626 207.975 751.538 207.967 751.45C205.961 735.166 171.646 710.955 161.626 712.968C155.853 714.131 150.168 713.867 151.049 719.683C151.058 719.781 151.078 719.869 151.088 719.967C152.644 720.594 154.157 721.322 155.618 722.146C156.46 722.615 157.282 723.124 158.084 723.652C159.028 724.282 159.774 725.166 160.236 726.202C160.699 727.237 160.859 728.383 160.699 729.505C160.538 730.628 160.063 731.682 159.329 732.547C158.595 733.412 157.63 734.052 156.548 734.394C160.804 737.746 165.126 741.024 169.513 744.226C170.207 744.735 170.902 745.243 171.607 745.732C177.331 749.857 183.169 753.831 189.121 757.656C196.382 762.329 203.799 766.779 211.372 771.008C212.409 771.585 213.447 772.162 214.494 772.728C211.861 761.909 210.528 750.816 210.521 739.681C210.518 734.603 210.799 729.529 211.362 724.482ZM216.715 689.559L216.734 689.529C216.734 689.548 216.727 689.565 216.715 689.578V689.559ZM208.916 759.846L208.613 759.171C208.623 758.673 208.623 758.184 208.613 757.676C208.613 757.539 208.584 757.402 208.584 757.266C208.701 758.135 208.799 759.005 208.926 759.875L208.916 759.846ZM253.858 761.175C253.966 760.726 254.054 760.413 254.161 759.963C254.122 759.865 254.083 759.768 254.044 759.68C250.786 751.929 233.584 767.558 226.147 778.867C234.856 783.265 243.737 787.364 252.791 791.163C253.398 790.4 254.024 789.648 254.641 788.885C254.699 788.817 254.748 788.758 254.797 788.69C256.128 787.048 257.469 785.425 258.79 783.783C258.799 783.461 258.799 783.138 258.799 782.825C258.786 778.117 258.208 773.428 257.077 768.858C256.168 768.9 255.268 768.662 254.5 768.176C253.731 767.69 253.13 766.979 252.779 766.141C252.427 765.302 252.342 764.376 252.535 763.488C252.729 762.6 253.19 761.793 253.858 761.175V761.175Z" fill="white"/>
<path d="M465.521 557.747C467.871 559.366 470.547 560.451 473.361 560.924C476.176 561.398 479.06 561.25 481.811 560.49C484.562 559.73 487.112 558.376 489.283 556.525C491.453 554.674 493.191 552.37 494.374 549.775L563.449 556.229L546.491 524.449L483.495 523.192C479 521.496 474.038 521.507 469.55 523.221C465.062 524.936 461.359 528.235 459.144 532.495C456.928 536.754 456.354 541.677 457.529 546.332C458.704 550.986 461.548 555.048 465.521 557.747V557.747Z" fill="#FFB6B6"/>
<path d="M535.563 555.572L631.152 566.277L631.481 565.856C632.112 565.051 694.658 485.075 705.166 466.037C711.632 454.599 713.986 441.296 711.839 428.336L711.768 428.019L711.519 427.809C706.423 423.543 700.024 421.139 693.377 420.994C686.73 420.848 680.232 422.97 674.954 427.008C649.576 446.643 629.113 471.9 615.181 500.788L607.275 517.23L535.563 524.294V555.572Z" fill="#6C63FF"/>
<path d="M458.011 779.25L439.596 822.081C436.954 822.267 434.309 822.417 431.66 822.531C429.566 822.638 427.482 822.716 425.378 822.775L424.664 823L424.077 822.814C421.249 822.902 418.412 822.958 415.564 822.98C414.361 822.99 413.157 823 411.944 823C411.376 823 410.809 823 410.241 822.99L411.464 818.807L412.903 813.851L418.617 794.224L426.866 765.889L439.136 771.147L458.011 779.25Z" fill="#FFB6B6"/>
<path d="M590.703 782.339C581.241 786.904 571.586 791.103 561.74 794.938L552.111 778.762L583.149 765.146L590.703 782.339Z" fill="#FFB6B6"/>
<path d="M656.193 708.816V742.89C650.468 747.112 644.63 751.185 638.678 755.108V708.816H656.193Z" fill="#CACACA"/>
<path d="M717.72 687.235C712.798 692.689 707.73 698.003 702.515 703.177C690.24 715.388 677.207 726.814 663.493 737.387H585.41C583.336 737.387 581.287 736.945 579.399 736.091C577.511 735.236 575.827 733.988 574.46 732.431L574.451 732.402C572.822 730.566 571.691 728.346 571.163 725.951L571.153 725.931C570.932 724.903 570.821 723.855 570.82 722.804V701.818C570.823 697.953 572.36 694.247 575.096 691.513C577.831 688.778 581.54 687.24 585.41 687.235H717.72Z" fill="#3F3D56"/>
<path d="M749.892 605.326L741.429 641.55C742.256 646.798 742.532 652.118 742.25 657.423C738.239 662.799 734.1 668.067 729.833 673.228C725.9 677.988 721.862 682.657 717.72 687.235C712.798 692.689 707.73 698.003 702.514 703.177C688.933 707.438 672.925 709.178 656.193 709.295C650.42 709.344 644.559 709.188 638.678 708.875C614.832 707.624 590.713 703.802 570.957 699.834C565.732 698.798 560.82 697.742 556.299 696.716C547.738 694.79 540.575 692.992 535.389 691.623C529.548 690.099 526.221 689.111 526.221 689.111L503.999 726.283L483.823 760.024L457.825 793.169C455.339 793.394 452.851 793.583 450.359 793.736C447.717 793.921 445.072 794.071 442.424 794.185C440.33 794.293 438.245 794.371 436.142 794.43L435.427 794.654L434.84 794.469L425.408 791.468L422.228 790.461L410.789 786.825C410.789 786.825 413.343 778.791 417.815 765.39C419.458 760.474 431.102 724.123 443.285 692.386C446.895 682.963 450.633 673.404 454.478 663.894C457.629 656.084 460.838 648.304 464.087 640.631C469.733 627.328 497.013 620.154 529.137 616.391C530.771 616.205 532.414 616.019 534.068 615.843C550.438 614.123 567.806 613.233 584.049 612.823C592.18 612.618 600.028 612.539 607.327 612.53C609.685 612.53 611.978 612.536 614.206 612.549H614.216C620.233 612.578 625.772 612.666 630.644 612.764C631.594 612.784 632.513 612.813 633.414 612.833H633.423C634.03 612.842 634.627 612.862 635.214 612.872C645.87 613.145 652.406 613.478 652.406 613.478L654.94 593.616L655.459 589.609L655.948 585.797V585.787L656.007 585.308L656.408 585.298L663.453 585.162L722.671 584.008L747.894 582.94L749.892 605.326Z" fill="#2F2E41"/>
<path d="M589.196 766.016C586.78 767.247 584.343 768.459 581.897 769.632C572.435 774.197 562.781 778.396 552.934 782.231C550.125 783.336 547.308 784.401 544.46 785.427C544.147 784.988 543.824 784.548 543.501 784.108C529.92 765.488 521.466 753.622 504 726.283C496.691 714.847 489.342 702.922 482.209 690.744L533.853 666.66L539.646 663.962L556.3 696.716L571.153 725.931L574.46 732.431L589.196 766.016Z" fill="#2F2E41"/>
<path d="M672.966 371.477C699.243 371.477 720.545 350.198 720.545 323.949C720.545 297.699 699.243 276.42 672.966 276.42C646.689 276.42 625.387 297.699 625.387 323.949C625.387 350.198 646.689 371.477 672.966 371.477Z" fill="#FFB6B6"/>
<path d="M757.896 471.681C757.505 432.428 758.66 443.795 755.548 430.277C747.192 393.937 712.505 387.31 706.457 386.489C705.813 384.776 704.823 383.213 703.549 381.899C702.275 380.585 700.743 379.547 699.05 378.849C697.356 378.151 695.538 377.809 693.706 377.844C691.875 377.878 690.07 378.289 688.404 379.05L676.828 385.047C665.605 390.179 672.416 397.592 668.541 409.292L664.471 421.705L631.114 513.809L637.866 548.85L637.876 548.869L642.426 572.474L655.917 587.827L655.664 585.376L655.361 585.846L655.351 585.855L654.569 587.018C655.655 587.615 656.731 588.201 657.788 588.788C660.528 590.293 663.199 591.769 665.802 593.215C666.428 593.567 667.044 593.909 667.661 594.261H667.67C668.062 594.476 668.453 594.691 668.835 594.906C678.6 600.36 642.455 610.291 650.488 614.954C651.604 615.599 652.709 616.244 653.796 616.879C690.782 638.49 720.293 665.409 729.834 673.228C734.1 668.067 738.239 662.799 742.25 657.423C745.89 652.565 749.416 647.623 752.828 642.595C753.425 638.666 753.826 634.737 754.217 630.886C754.687 626.253 752.241 583.334 753.063 578.613C753.425 576.521 752.035 574.537 750.695 572.621C749.452 570.832 748.278 569.151 748.523 567.568C748.777 565.935 750.577 564.156 752.329 562.426C754.237 560.53 756.213 558.575 756.497 556.513C757.28 550.766 754.061 544.999 754.667 539.212C755.665 529.8 756.432 520.358 756.967 510.886C757.72 497.808 758.03 484.74 757.896 471.681Z" fill="#6C63FF"/>
<path d="M489.533 567.949C491.498 565.88 493.892 564.267 496.548 563.224C499.204 562.18 502.057 561.73 504.905 561.907C507.754 562.083 510.529 562.882 513.035 564.246C515.542 565.61 517.718 567.506 519.412 569.801L585.666 549.244L575.639 583.837L514.26 598.054C510.212 600.64 505.355 601.653 500.609 600.901C495.863 600.149 491.558 597.683 488.51 593.973C485.463 590.262 483.883 585.563 484.072 580.767C484.26 575.97 486.204 571.41 489.533 567.949L489.533 567.949Z" fill="#FFB6B6"/>
<path d="M569.856 587.086L692.835 561.759L660.919 569.656C661.28 568.7 697.151 473.748 701.508 452.448C704.271 439.605 702.553 426.205 696.641 414.473L696.478 414.191L696.178 414.065C690.042 411.508 683.217 411.116 676.828 412.954C670.439 414.792 664.868 418.75 661.033 424.176C642.658 450.468 630.652 480.666 625.962 512.388L623.316 530.435L579.958 543.391L569.856 587.086Z" fill="#6C63FF"/>
<path d="M340.671 548.408C341.102 549.662 341.92 550.747 343.007 551.508C344.094 552.268 345.394 552.665 346.721 552.641L372.643 551.975C373.979 551.949 375.272 551.491 376.327 550.671C377.381 549.851 378.142 548.711 378.495 547.423L382.163 508.24C383.465 508.829 384.881 509.12 386.31 509.092C388.816 509.029 391.195 507.974 392.923 506.159C394.651 504.344 395.586 501.918 395.523 499.414C395.46 496.911 394.404 494.534 392.587 492.808C390.771 491.082 388.342 490.148 385.835 490.211C385.264 490.209 384.695 490.268 384.137 490.387C383.529 489.731 382.791 489.209 381.97 488.855C381.149 488.501 380.262 488.323 379.367 488.332L339.494 489.36C339.163 489.373 338.834 489.413 338.51 489.482C337.636 489.645 336.806 489.993 336.078 490.503C335.349 491.013 334.739 491.673 334.287 492.438C333.835 493.204 333.553 494.057 333.459 494.94C333.365 495.824 333.461 496.717 333.742 497.561L340.671 548.408ZM382.915 505.58L385.526 496.243C385.823 495.164 385.829 494.027 385.546 492.944C385.672 492.944 385.784 492.884 385.911 492.884C387.7 492.847 389.432 493.52 390.725 494.757C392.019 495.993 392.768 497.691 392.81 499.479C392.852 501.266 392.183 502.998 390.949 504.293C389.715 505.589 388.017 506.342 386.227 506.389C385.07 506.425 383.925 506.146 382.915 505.58Z" fill="#2F2E41"/>
<path d="M338.511 489.482C339.36 494.334 348.911 497.745 360.395 497.152C370.956 496.666 379.591 492.962 381.173 488.572C380.587 488.399 379.978 488.318 379.368 488.332L339.494 489.36C339.164 489.372 338.834 489.413 338.511 489.482Z" fill="#3F3D56"/>
<path d="M165.112 454.011V537.781C165.113 538.849 165.538 539.872 166.294 540.627C167.049 541.382 168.074 541.806 169.143 541.807H293.415C294.483 541.806 295.508 541.382 296.264 540.627C297.019 539.872 297.444 538.849 297.445 537.781V454.011C297.442 452.945 297.017 451.923 296.261 451.169C295.506 450.415 294.482 449.991 293.415 449.99H169.143C168.075 449.991 167.051 450.415 166.296 451.169C165.54 451.923 165.115 452.945 165.112 454.011Z" fill="#3F3D56"/>
<path d="M168.027 455.054V536.748C168.028 537.318 168.256 537.865 168.659 538.268C169.063 538.672 169.61 538.899 170.181 538.9H292.38C292.951 538.899 293.498 538.672 293.902 538.268C294.306 537.865 294.533 537.318 294.534 536.748V455.054C294.534 454.483 294.307 453.935 293.903 453.531C293.499 453.126 292.951 452.899 292.38 452.897H170.181C169.61 452.899 169.062 453.126 168.658 453.531C168.254 453.935 168.027 454.483 168.027 455.054Z" fill="#6C63FF"/>
<path d="M162.513 554.119C162.741 554.404 163.03 554.634 163.36 554.791C163.689 554.948 164.05 555.029 164.415 555.027H297.481C297.845 555.027 298.204 554.945 298.533 554.789C298.861 554.632 299.15 554.405 299.38 554.122C299.609 553.84 299.772 553.51 299.858 553.157C299.943 552.803 299.949 552.436 299.874 552.08L297.809 542.279C297.723 541.879 297.539 541.507 297.273 541.197C297.006 540.887 296.667 540.648 296.284 540.502C296.007 540.394 295.713 540.338 295.415 540.338H166.472C166.175 540.338 165.88 540.394 165.604 540.502C165.221 540.648 164.881 540.887 164.615 541.197C164.349 541.507 164.165 541.879 164.079 542.279L162.013 552.08C161.94 552.435 161.947 552.803 162.033 553.156C162.12 553.508 162.284 553.837 162.513 554.119Z" fill="#2F2E41"/>
<path d="M290.849 544.56H293.992C294.256 544.56 294.47 544.346 294.47 544.082V542.58C294.47 542.317 294.256 542.103 293.992 542.103H290.849C290.585 542.103 290.371 542.317 290.371 542.58V544.082C290.371 544.346 290.585 544.56 290.849 544.56Z" fill="#3F3D56"/>
<path d="M282.653 544.56H285.796C286.06 544.56 286.273 544.346 286.273 544.082V542.58C286.273 542.317 286.06 542.103 285.796 542.103H282.653C282.389 542.103 282.175 542.317 282.175 542.58V544.082C282.175 544.346 282.389 544.56 282.653 544.56Z" fill="#3F3D56"/>
<path d="M274.455 544.56H277.598C277.862 544.56 278.076 544.346 278.076 544.082V542.58C278.076 542.317 277.862 542.103 277.598 542.103H274.455C274.192 542.103 273.978 542.317 273.978 542.58V544.082C273.978 544.346 274.192 544.56 274.455 544.56Z" fill="#3F3D56"/>
<path d="M266.259 544.56H269.402C269.666 544.56 269.88 544.346 269.88 544.082V542.58C269.88 542.317 269.666 542.103 269.402 542.103H266.259C265.995 542.103 265.781 542.317 265.781 542.58V544.082C265.781 544.346 265.995 544.56 266.259 544.56Z" fill="#3F3D56"/>
<path d="M258.062 544.56H261.205C261.469 544.56 261.683 544.346 261.683 544.082V542.58C261.683 542.317 261.469 542.103 261.205 542.103H258.062C257.798 542.103 257.584 542.317 257.584 542.58V544.082C257.584 544.346 257.798 544.56 258.062 544.56Z" fill="#3F3D56"/>
<path d="M249.866 544.56H253.009C253.272 544.56 253.486 544.346 253.486 544.082V542.58C253.486 542.317 253.272 542.103 253.009 542.103H249.866C249.602 542.103 249.388 542.317 249.388 542.58V544.082C249.388 544.346 249.602 544.56 249.866 544.56Z" fill="#3F3D56"/>
<path d="M241.668 544.56H244.811C245.075 544.56 245.289 544.346 245.289 544.082V542.58C245.289 542.317 245.075 542.103 244.811 542.103H241.668C241.405 542.103 241.191 542.317 241.191 542.58V544.082C241.191 544.346 241.405 544.56 241.668 544.56Z" fill="#3F3D56"/>
<path d="M233.472 544.56H236.615C236.879 544.56 237.093 544.346 237.093 544.082V542.58C237.093 542.317 236.879 542.103 236.615 542.103H233.472C233.208 542.103 232.994 542.317 232.994 542.58V544.082C232.994 544.346 233.208 544.56 233.472 544.56Z" fill="#3F3D56"/>
<path d="M225.275 544.56H228.418C228.682 544.56 228.896 544.346 228.896 544.082V542.58C228.896 542.317 228.682 542.103 228.418 542.103H225.275C225.011 542.103 224.797 542.317 224.797 542.58V544.082C224.797 544.346 225.011 544.56 225.275 544.56Z" fill="#3F3D56"/>
<path d="M217.079 544.56H220.222C220.485 544.56 220.699 544.346 220.699 544.082V542.58C220.699 542.317 220.485 542.103 220.222 542.103H217.079C216.815 542.103 216.601 542.317 216.601 542.58V544.082C216.601 544.346 216.815 544.56 217.079 544.56Z" fill="#3F3D56"/>
<path d="M208.881 544.56H212.024C212.288 544.56 212.502 544.346 212.502 544.082V542.58C212.502 542.317 212.288 542.103 212.024 542.103H208.881C208.617 542.103 208.404 542.317 208.404 542.58V544.082C208.404 544.346 208.617 544.56 208.881 544.56Z" fill="#3F3D56"/>
<path d="M200.685 544.56H203.828C204.092 544.56 204.306 544.346 204.306 544.082V542.58C204.306 542.317 204.092 542.103 203.828 542.103H200.685C200.421 542.103 200.207 542.317 200.207 542.58V544.082C200.207 544.346 200.421 544.56 200.685 544.56Z" fill="#3F3D56"/>
<path d="M192.489 544.56H195.632C195.896 544.56 196.109 544.346 196.109 544.082V542.58C196.109 542.317 195.896 542.103 195.632 542.103H192.489C192.225 542.103 192.011 542.317 192.011 542.58V544.082C192.011 544.346 192.225 544.56 192.489 544.56Z" fill="#3F3D56"/>
<path d="M184.291 544.56H187.434C187.698 544.56 187.912 544.346 187.912 544.082V542.58C187.912 542.317 187.698 542.103 187.434 542.103H184.291C184.028 542.103 183.814 542.317 183.814 542.58V544.082C183.814 544.346 184.028 544.56 184.291 544.56Z" fill="#3F3D56"/>
<path d="M176.095 544.56H179.238C179.502 544.56 179.716 544.346 179.716 544.082V542.58C179.716 542.317 179.502 542.103 179.238 542.103H176.095C175.831 542.103 175.617 542.317 175.617 542.58V544.082C175.617 544.346 175.831 544.56 176.095 544.56Z" fill="#3F3D56"/>
<path d="M167.898 544.56H171.041C171.305 544.56 171.519 544.346 171.519 544.082V542.58C171.519 542.317 171.305 542.103 171.041 542.103H167.898C167.634 542.103 167.42 542.317 167.42 542.58V544.082C167.42 544.346 167.634 544.56 167.898 544.56Z" fill="#3F3D56"/>
<path d="M290.946 548.654H294.089C294.353 548.654 294.566 548.44 294.566 548.177V546.675C294.566 546.411 294.353 546.197 294.089 546.197H290.946C290.682 546.197 290.468 546.411 290.468 546.675V548.177C290.468 548.44 290.682 548.654 290.946 548.654Z" fill="#3F3D56"/>
<path d="M282.749 548.654H285.892C286.156 548.654 286.37 548.44 286.37 548.177V546.675C286.37 546.411 286.156 546.197 285.892 546.197H282.749C282.486 546.197 282.272 546.411 282.272 546.675V548.177C282.272 548.44 282.486 548.654 282.749 548.654Z" fill="#3F3D56"/>
<path d="M274.552 548.654H277.695C277.959 548.654 278.173 548.44 278.173 548.177V546.675C278.173 546.411 277.959 546.197 277.695 546.197H274.552C274.288 546.197 274.075 546.411 274.075 546.675V548.177C274.075 548.44 274.288 548.654 274.552 548.654Z" fill="#3F3D56"/>
<path d="M266.356 548.654H269.499C269.763 548.654 269.977 548.44 269.977 548.177V546.675C269.977 546.411 269.763 546.197 269.499 546.197H266.356C266.092 546.197 265.878 546.411 265.878 546.675V548.177C265.878 548.44 266.092 548.654 266.356 548.654Z" fill="#3F3D56"/>
<path d="M258.159 548.654H261.302C261.565 548.654 261.779 548.44 261.779 548.177V546.675C261.779 546.411 261.565 546.197 261.302 546.197H258.159C257.895 546.197 257.681 546.411 257.681 546.675V548.177C257.681 548.44 257.895 548.654 258.159 548.654Z" fill="#3F3D56"/>
<path d="M249.962 548.654H253.105C253.369 548.654 253.583 548.44 253.583 548.177V546.675C253.583 546.411 253.369 546.197 253.105 546.197H249.962C249.699 546.197 249.485 546.411 249.485 546.675V548.177C249.485 548.44 249.699 548.654 249.962 548.654Z" fill="#3F3D56"/>
<path d="M241.766 548.654H244.909C245.173 548.654 245.387 548.44 245.387 548.177V546.675C245.387 546.411 245.173 546.197 244.909 546.197H241.766C241.502 546.197 241.288 546.411 241.288 546.675V548.177C241.288 548.44 241.502 548.654 241.766 548.654Z" fill="#3F3D56"/>
<path d="M233.569 548.654H236.712C236.976 548.654 237.189 548.44 237.189 548.177V546.675C237.189 546.411 236.976 546.197 236.712 546.197H233.569C233.305 546.197 233.091 546.411 233.091 546.675V548.177C233.091 548.44 233.305 548.654 233.569 548.654Z" fill="#3F3D56"/>
<path d="M225.373 548.654H228.515C228.779 548.654 228.993 548.44 228.993 548.177V546.675C228.993 546.411 228.779 546.197 228.515 546.197H225.373C225.109 546.197 224.895 546.411 224.895 546.675V548.177C224.895 548.44 225.109 548.654 225.373 548.654Z" fill="#3F3D56"/>
<path d="M217.175 548.654H220.318C220.582 548.654 220.796 548.44 220.796 548.177V546.675C220.796 546.411 220.582 546.197 220.318 546.197H217.175C216.911 546.197 216.698 546.411 216.698 546.675V548.177C216.698 548.44 216.911 548.654 217.175 548.654Z" fill="#3F3D56"/>
<path d="M208.979 548.654H212.122C212.386 548.654 212.6 548.44 212.6 548.177V546.675C212.6 546.411 212.386 546.197 212.122 546.197H208.979C208.715 546.197 208.501 546.411 208.501 546.675V548.177C208.501 548.44 208.715 548.654 208.979 548.654Z" fill="#3F3D56"/>
<path d="M200.782 548.654H203.925C204.188 548.654 204.402 548.44 204.402 548.177V546.675C204.402 546.411 204.188 546.197 203.925 546.197H200.782C200.518 546.197 200.304 546.411 200.304 546.675V548.177C200.304 548.44 200.518 548.654 200.782 548.654Z" fill="#3F3D56"/>
<path d="M192.585 548.654H195.728C195.992 548.654 196.206 548.44 196.206 548.177V546.675C196.206 546.411 195.992 546.197 195.728 546.197H192.585C192.322 546.197 192.108 546.411 192.108 546.675V548.177C192.108 548.44 192.322 548.654 192.585 548.654Z" fill="#3F3D56"/>
<path d="M184.388 548.654H187.531C187.795 548.654 188.009 548.44 188.009 548.177V546.675C188.009 546.411 187.795 546.197 187.531 546.197H184.388C184.124 546.197 183.91 546.411 183.91 546.675V548.177C183.91 548.44 184.124 548.654 184.388 548.654Z" fill="#3F3D56"/>
<path d="M176.192 548.654H179.335C179.599 548.654 179.812 548.44 179.812 548.177V546.675C179.812 546.411 179.599 546.197 179.335 546.197H176.192C175.928 546.197 175.714 546.411 175.714 546.675V548.177C175.714 548.44 175.928 548.654 176.192 548.654Z" fill="#3F3D56"/>
<path d="M167.995 548.654H171.138C171.401 548.654 171.615 548.44 171.615 548.177V546.675C171.615 546.411 171.401 546.197 171.138 546.197H167.995C167.731 546.197 167.517 546.411 167.517 546.675V548.177C167.517 548.44 167.731 548.654 167.995 548.654Z" fill="#3F3D56"/>
<path d="M222.913 553.566H254.745C255.009 553.566 255.223 553.353 255.223 553.089V551.587C255.223 551.324 255.009 551.11 254.745 551.11H222.913C222.65 551.11 222.436 551.324 222.436 551.587V553.089C222.436 553.353 222.65 553.566 222.913 553.566Z" fill="#3F3D56"/>
<path d="M462.783 549.563L518.4 500.991C521.045 498.681 516.002 505.562 518.314 508.204C520.626 510.846 529.417 508.247 526.773 510.557L471.156 559.129L457.071 562.342L462.783 549.563Z" fill="#3F3D56"/>
<path d="M462.784 549.563L464.132 548.386C465.931 549.287 467.537 550.531 468.858 552.048C470.422 553.831 471.558 555.947 472.18 558.235L471.156 559.129L459.931 561.688L457.071 562.342L458.263 559.665L462.784 549.563Z" fill="#CCCCCC"/>
<path d="M458.263 559.665C458.68 559.848 459.048 560.127 459.338 560.478C459.627 560.83 459.83 561.244 459.93 561.688L457.071 562.342L458.263 559.665Z" fill="#3F3D56"/>
<path d="M825.664 393.885C820.419 401.724 812.024 407.149 802.983 409.837C799.31 410.929 795.519 411.572 791.691 411.753C791.218 407.429 790.087 403.204 788.335 399.222C788.513 403.46 787.923 407.695 786.593 411.723C780.846 411.398 775.227 409.894 770.086 407.305C760.057 402.174 752.336 392.36 750.624 381.228C748.608 368.228 754.509 355.462 756.642 342.482C758.785 329.502 754.763 313.061 742.043 309.65C732.356 307.05 733.442 308.174 725.389 314.146C733.766 326.519 702.826 371.859 690.164 367.905C683.005 365.67 678.422 359.108 676.944 359.108C666.993 376.233 685.731 405.087 666.846 411.078L668.402 409.524C679.801 395.518 655.975 365.872 667.375 351.865C670.555 347.946 673.94 343.303 673.001 338.348C672.111 333.636 664.625 331.144 662.433 335.015C666.377 325.993 660.555 313.951 650.917 311.634C642.355 309.572 642.511 312.113 633.92 313.218C633.359 309.509 632.309 305.89 630.799 302.456C630.957 306.157 630.524 309.859 629.517 313.423C626.482 313.364 623.552 312.306 621.18 310.413C614.175 304.773 615.593 292.926 621.846 286.465C628.108 280.005 637.413 277.678 646.288 276.173C648.868 258.227 698.437 256.355 705.007 274.287C707.806 260.896 724.587 253.946 737.63 258.1C750.673 262.254 759.724 274.424 764.489 287.247C769.254 300.062 770.585 313.853 773.521 327.205C776.456 340.557 781.417 354.153 791.632 363.253C801.848 372.343 818.492 375.353 829.255 366.908C832.65 375.705 830.899 386.037 825.664 393.885Z" fill="#2F2E41"/>
</g>
<defs>
<clipPath id="clip0_132_600">
<rect width="831" height="823" fill="white"/>
</clipPath>
</defs>
</svg>
