<svg width="722" height="532" viewBox="0 0 722 532" fill="none" xmlns="http://www.w3.org/2000/svg">
<path d="M722 196.992H418.517V205.895H722V196.992Z" fill="#E6E6E6"/>
<path d="M520.487 122.531H443.605V199.42H520.487V122.531Z" fill="#E6E6E6"/>
<path d="M505.111 137.909H458.981V184.042H505.111V137.909Z" fill="#CCCCCC"/>
<path d="M635.406 122.531H615.983V199.42H635.406V122.531Z" fill="#E6E6E6"/>
<path d="M635.406 134.671H615.983V143.574H635.406V134.671Z" fill="#CCCCCC"/>
<path d="M635.406 173.521H615.983V182.423H635.406V173.521Z" fill="#CCCCCC"/>
<path d="M605.463 122.531H586.04V199.42H605.463V122.531Z" fill="#E6E6E6"/>
<path d="M605.463 134.671H586.04V143.574H605.463V134.671Z" fill="#CCCCCC"/>
<path d="M605.463 173.521H586.04V182.423H605.463V173.521Z" fill="#CCCCCC"/>
<path d="M652.141 122.213L634.735 130.832L668.847 199.738L686.253 191.119L652.141 122.213Z" fill="#E6E6E6"/>
<path d="M657.528 133.093L640.121 141.711L644.071 149.69L661.477 141.072L657.528 133.093Z" fill="#CCCCCC"/>
<path d="M674.763 167.909L657.356 176.527L661.306 184.506L678.713 175.887L674.763 167.909Z" fill="#CCCCCC"/>
<path d="M472.334 153.395L482.116 170.337L491.897 187.28H472.334H452.772L462.553 170.337L472.334 153.395Z" fill="#E6E6E6"/>
<path d="M489.329 156.632L499.11 173.575L508.892 190.517H489.329H469.768L479.549 173.575L489.329 156.632Z" fill="#E6E6E6"/>
<path d="M496.209 151.668C499.337 151.668 501.874 149.131 501.874 146.002C501.874 142.873 499.337 140.337 496.209 140.337C493.08 140.337 490.543 142.873 490.543 146.002C490.543 149.131 493.08 151.668 496.209 151.668Z" fill="#E6E6E6"/>
<path d="M418.517 83.6816L722 83.6816V74.7787L418.517 74.7787V83.6816Z" fill="#E6E6E6"/>
<path d="M620.03 77.207L696.912 77.207V0.317993L620.03 0.317993V77.207Z" fill="#E6E6E6"/>
<path d="M635.406 61.8291L681.536 61.8291V15.6957L635.406 15.6957V61.8291Z" fill="#CCCCCC"/>
<path d="M505.111 77.207H524.534V0.317993H505.111V77.207Z" fill="#E6E6E6"/>
<path d="M505.111 21.3613L524.534 21.3613V12.4584L505.111 12.4584V21.3613Z" fill="#CCCCCC"/>
<path d="M505.111 60.2104H524.534V51.3075H505.111V60.2104Z" fill="#CCCCCC"/>
<path d="M535.054 77.207H554.477V0.317993H535.054V77.207Z" fill="#E6E6E6"/>
<path d="M535.054 21.3613L554.477 21.3613V12.4584L535.054 12.4584V21.3613Z" fill="#CCCCCC"/>
<path d="M535.054 60.2104H554.477V51.3075H535.054V60.2104Z" fill="#CCCCCC"/>
<path d="M454.264 68.9064L471.67 77.5249L505.782 8.6185L488.376 -3.10173e-06L454.264 68.9064Z" fill="#E6E6E6"/>
<path d="M479.04 18.8586L496.446 27.4771L500.396 19.4984L482.989 10.8799L479.04 18.8586Z" fill="#CCCCCC"/>
<path d="M461.804 53.6745L479.21 62.293L483.16 54.3143L465.754 45.6958L461.804 53.6745Z" fill="#CCCCCC"/>
<path d="M668.182 31.1807L658.402 48.1233L648.621 65.066H668.182H687.745L677.963 48.1233L668.182 31.1807Z" fill="#E6E6E6"/>
<path d="M651.187 34.4185L641.406 51.3611L631.625 68.3038H651.187H670.75L660.969 51.3611L651.187 34.4185Z" fill="#E6E6E6"/>
<path d="M644.308 29.455C647.437 29.455 649.973 26.9185 649.973 23.7895C649.973 20.6606 647.437 18.124 644.308 18.124C641.18 18.124 638.643 20.6606 638.643 23.7895C638.643 26.9185 641.18 29.455 644.308 29.455Z" fill="#E6E6E6"/>
<path d="M418.517 328.108L722 328.108V319.205L418.517 319.205V328.108Z" fill="#E6E6E6"/>
<path d="M620.03 321.633H696.912V244.744H620.03V321.633Z" fill="#E6E6E6"/>
<path d="M635.406 306.255H681.536V260.122H635.406V306.255Z" fill="#CCCCCC"/>
<path d="M505.111 321.633H524.534V244.744H505.111V321.633Z" fill="#E6E6E6"/>
<path d="M505.111 265.788H524.534V256.885H505.111V265.788Z" fill="#CCCCCC"/>
<path d="M505.111 304.637H524.534V295.734H505.111V304.637Z" fill="#CCCCCC"/>
<path d="M535.054 321.633H554.477V244.744H535.054V321.633Z" fill="#E6E6E6"/>
<path d="M535.054 265.788H554.477V256.885H535.054V265.788Z" fill="#CCCCCC"/>
<path d="M535.054 304.637H554.477V295.734H535.054V304.637Z" fill="#CCCCCC"/>
<path d="M454.264 313.333L471.67 321.951L505.782 253.045L488.376 244.426L454.264 313.333Z" fill="#E6E6E6"/>
<path d="M479.04 263.285L496.446 271.903L500.396 263.925L482.989 255.306L479.04 263.285Z" fill="#CCCCCC"/>
<path d="M461.804 298.101L479.21 306.719L483.16 298.741L465.754 290.122L461.804 298.101Z" fill="#CCCCCC"/>
<path d="M668.182 275.607L658.402 292.55L648.621 309.493H668.182H687.745L677.963 292.55L668.182 275.607Z" fill="#E6E6E6"/>
<path d="M651.187 278.844L641.406 295.787L631.625 312.731H651.187H670.75L660.969 295.787L651.187 278.844Z" fill="#E6E6E6"/>
<path d="M644.308 273.881C647.437 273.881 649.973 271.344 649.973 268.215C649.973 265.086 647.437 262.55 644.308 262.55C641.18 262.55 638.643 265.086 638.643 268.215C638.643 271.344 641.18 273.881 644.308 273.881Z" fill="#E6E6E6"/>
<path d="M357.503 532C554.947 532 715.007 520.631 715.007 506.607C715.007 492.583 554.947 481.214 357.503 481.214C160.06 481.214 0 492.583 0 506.607C0 520.631 160.06 532 357.503 532Z" fill="#E6E6E6"/>
<path d="M636.803 520.827C578.509 510.451 514.763 512.176 447.895 520.827C478.372 495.096 504.676 469.364 474.199 443.632C533.648 455.898 541.975 454.657 608.108 443.632C592.769 469.364 621.464 495.096 636.803 520.827Z" fill="#6C63FF"/>
<path opacity="0.2" d="M636.803 520.827C578.509 510.451 514.763 512.176 447.895 520.827C478.372 495.096 504.676 469.364 474.199 443.632C533.648 455.898 541.975 454.657 608.108 443.632C592.769 469.364 621.464 495.096 636.803 520.827Z" fill="black"/>
<path d="M622.584 509.849C573.066 501.566 518.915 502.943 462.114 509.849C488.003 489.31 510.347 468.77 484.458 448.23C534.958 458.021 542.032 457.03 598.209 448.23C585.179 468.77 609.554 489.31 622.584 509.849Z" fill="#6C63FF"/>
<path d="M603.723 476.755C618.295 476.755 630.108 464.941 630.108 450.368C630.108 435.795 618.295 423.981 603.723 423.981C589.151 423.981 577.339 435.795 577.339 450.368C577.339 464.941 589.151 476.755 603.723 476.755Z" fill="#2F2E41"/>
<path d="M483.95 419.762L502.231 422.81L511.372 449.218L484.966 465.47L454.496 419.762H482.934H483.95Z" fill="#A0616A"/>
<path d="M535.747 460.391C559.306 460.391 578.404 441.292 578.404 417.731C578.404 394.17 559.306 375.071 535.747 375.071C512.189 375.071 493.091 394.17 493.091 417.731C493.091 441.292 512.189 460.391 535.747 460.391Z" fill="#A0616A"/>
<path d="M300.12 262.326C300.12 262.326 196.525 273.499 178.244 271.467C159.963 269.436 151.837 267.404 151.837 267.404C151.837 267.404 139.65 283.656 145.744 290.766C149.156 294.863 153.286 298.305 157.931 300.923C157.931 300.923 169.103 297.876 177.228 300.923C185.353 303.97 267.62 317.175 281.839 304.986C296.058 292.797 300.12 262.326 300.12 262.326Z" fill="#2F2E41"/>
<path d="M307.23 488.832C307.23 488.832 239.182 469.533 226.994 384.213V376.087C226.994 376.087 213.531 399.709 208.713 404.527C203.127 410.114 183.322 460.392 184.338 465.47C185.353 470.549 184.338 472.58 184.338 472.58L154.884 469.533V460.392C154.884 460.392 170.627 413.161 171.642 401.988C172.658 390.815 210.744 313.112 210.744 313.112C210.744 313.112 224.963 283.656 249.338 313.112C273.714 342.568 275.745 362.882 275.745 362.882L307.23 423.826L307.23 488.832Z" fill="#2F2E41"/>
<path d="M154.884 264.357L122.384 253.184C122.384 253.184 91.9149 230.838 99.0243 253.184C106.134 275.53 138.634 324.285 147.775 319.206C156.916 314.127 167.909 301.521 165.459 299.698C163.009 297.876 146.759 284.671 154.884 264.357Z" fill="#2F2E41"/>
<path d="M158.813 454.395L132.577 467.209C132.577 467.209 100.85 472.09 118.544 481.243C136.238 490.396 185.049 500.159 187.489 491.616C189.93 483.074 188.961 468.896 186.395 469.273C183.828 469.65 166.134 471.48 158.813 454.395Z" fill="#2F2E41"/>
<path d="M294.026 421.794C294.026 421.794 280.823 478.675 303.167 490.863C325.511 503.052 481.919 505.083 494.106 482.737C506.294 460.392 500.2 460.392 500.2 460.392L467.7 423.826L494.106 421.794C494.106 421.794 494.106 413.668 484.966 412.653C475.825 411.637 447.387 401.48 423.012 408.59C398.637 415.7 384.418 394.37 384.418 394.37L294.026 421.794Z" fill="#575A89"/>
<path d="M276.761 244.042L259.494 338.505L378.324 324.285L399.652 238.964L276.761 244.042Z" fill="#3F3D56"/>
<path d="M280.316 247.598L266.097 331.902L374.262 319.206L395.082 242.519L280.316 247.598Z" fill="white"/>
<path d="M263.557 339.521L259.494 338.505L257.464 342.568L289.964 432.967L293.02 431.799L294.026 425.858L263.557 339.521Z" fill="#B3B3B3"/>
<path d="M259.494 337.489L291.995 431.952L414.887 413.668L378.324 324.285L259.494 337.489Z" fill="#D0CDE1"/>
<path d="M275.745 334.442V339.521L366.136 329.364L365.121 324.285L275.745 334.442Z" fill="#3F3D56"/>
<path d="M277.776 344.6L291.995 384.213L384.418 373.04L368.168 335.458L277.776 344.6Z" fill="#3F3D56"/>
<path d="M393.559 400.464L390.512 392.338C390.512 392.338 367.152 351.709 354.964 359.835C342.777 367.961 380.355 407.574 380.355 407.574H392.543L393.559 400.464Z" fill="#A0616A"/>
<path d="M316.37 406.558L313.323 394.37C313.323 394.37 305.198 356.788 319.417 358.819C333.636 360.851 337.699 396.401 337.699 396.401L336.683 404.527L316.37 406.558Z" fill="#A0616A"/>
<path d="M340.745 401.479C340.745 401.479 314.339 397.417 313.323 403.511C312.308 409.605 307.23 501.02 332.62 504.068C358.011 507.115 483.95 520.319 470.747 488.832C457.544 457.344 437.231 461.407 437.231 461.407L350.902 470.549L340.745 401.479Z" fill="#575A89"/>
<path d="M420.472 413.161L393.559 394.37L375.785 408.082L398.129 432.459L420.472 413.161Z" fill="#575A89"/>
<path opacity="0.2" d="M348.363 431.444L352.425 470.041L422.504 465.978L361.566 464.963L348.363 431.444Z" fill="black"/>
<path d="M556.804 476.269C584.85 476.269 607.586 453.531 607.586 425.483C607.586 397.434 584.85 374.697 556.804 374.697C528.758 374.697 506.022 397.434 506.022 425.483C506.022 453.531 528.758 476.269 556.804 476.269Z" fill="#2F2E41"/>
<path d="M295.55 277.053L358.519 274.861L364.613 251.661L299.613 253.622L295.55 277.053Z" fill="#6C63FF"/>
<path d="M279.3 290.259L374.769 287.211L375.785 283.148L280.316 286.51L279.3 290.259Z" fill="#E6E6E6"/>
<path d="M277.268 300.415L372.738 297.368L373.754 293.305L278.284 296.666L277.268 300.415Z" fill="#E6E6E6"/>
<path d="M276.253 308.541L371.722 305.494L372.738 301.431L277.268 304.792L276.253 308.541Z" fill="#E6E6E6"/>
</svg>
