<svg width="771" height="505" viewBox="0 0 771 505" fill="none" xmlns="http://www.w3.org/2000/svg">
<path d="M121.387 411.409H63.8426C62.5445 411.406 61.2614 411.687 60.0831 412.232C58.9049 412.776 57.8598 413.572 57.0211 414.563C54.8987 414.173 52.714 414.292 50.6464 414.91C48.5788 415.528 46.6872 416.627 45.1269 418.118C43.5666 419.609 42.3821 421.448 41.6707 423.486C40.9592 425.523 40.7411 427.7 41.0341 429.838C41.3272 431.976 42.1231 434.014 43.3566 435.785C44.59 437.555 46.2258 439.008 48.1297 440.024C50.0336 441.04 52.1512 441.59 54.3089 441.629C56.4665 441.668 58.6026 441.195 60.5418 440.248L67.2643 496.703C67.8297 498.541 68.9695 500.149 70.5163 501.291C72.0631 502.434 73.9355 503.05 75.8585 503.05H113.271C115.194 503.05 117.066 502.434 118.613 501.291C120.16 500.149 121.299 498.541 121.865 496.703L129.981 423.045C130.395 421.7 130.487 420.277 130.25 418.89C130.014 417.503 129.455 416.191 128.619 415.059C127.783 413.927 126.693 413.007 125.437 412.373C124.181 411.739 122.794 411.409 121.387 411.409V411.409ZM54.5934 437.732C52.0078 437.732 49.5281 436.704 47.6998 434.876C45.8715 433.048 44.8444 430.568 44.8444 427.983C44.8444 425.397 45.8715 422.917 47.6998 421.089C49.5281 419.261 52.0078 418.234 54.5934 418.234C54.7714 418.234 54.9371 418.277 55.1132 418.286C54.7255 419.855 54.7725 421.501 55.2494 423.045L59.367 436.43C57.9164 437.272 56.2708 437.721 54.5934 437.732V437.732Z" fill="#F0F0F0"/>
<path d="M769.215 505H0.959121C0.704746 505 0.460789 504.795 0.280919 504.429C0.101049 504.063 0 503.568 0 503.05C0 502.533 0.101049 502.037 0.280919 501.672C0.460789 501.306 0.704746 501.101 0.959121 501.101H769.215C769.469 501.101 769.713 501.306 769.893 501.672C770.073 502.037 770.174 502.533 770.174 503.05C770.174 503.568 770.073 504.063 769.893 504.429C769.713 504.795 769.469 505 769.215 505Z" fill="#3F3D56"/>
<path d="M325.765 391.768L287.871 248.487L283.484 231.947L287.598 228.127L358.224 193.138L459.146 195.651L518.394 226.068L518.714 248.487L521.639 450.469L533.459 500.047H316.687L333.518 421.088L325.765 391.768Z" fill="#6C63FF"/>
<path d="M575.052 500.047H518.56L502.963 387.427L507.045 248.488L507.608 229.586L518.392 226.067C526.52 232.004 533.239 239.659 538.07 248.488C545.001 260.551 550.758 277.838 549.327 301.081C549.327 301.081 550.606 328.528 549.387 346.806C548.55 359.295 563.126 438.239 575.052 500.047Z" fill="#6C63FF"/>
<path d="M325.964 390.337L325.766 391.768L310.778 500.047H245.817C251.026 438.696 257.149 361.991 256.326 349.7C255.108 331.437 256.387 303.975 256.387 303.975C254.833 278.798 261.734 260.642 269.395 248.488C273.249 242.309 277.997 236.735 283.484 231.947C284.701 230.879 285.982 229.887 287.322 228.977L298.106 232.48L300.924 248.488L325.964 390.337Z" fill="#6C63FF"/>
<path d="M333.451 98.9847C333.451 112.821 337.554 126.347 345.241 137.851C352.928 149.356 363.854 158.323 376.638 163.618C389.421 168.913 403.487 170.298 417.058 167.599C430.628 164.899 443.093 158.236 452.877 148.453C462.661 138.669 469.324 126.203 472.023 112.633C474.723 99.0623 473.337 84.9961 468.042 72.2129C462.747 59.4297 453.781 48.5037 442.276 40.8166C430.772 33.1295 417.246 29.0266 403.409 29.0266V29.0266C384.902 28.9804 367.134 36.2882 354.014 49.3425C340.894 62.3968 333.498 80.1283 333.451 98.6361C333.451 98.7523 333.451 98.8685 333.451 98.9847Z" fill="#FFB7B7"/>
<path d="M626.863 488.891C626.863 492.884 625.277 496.714 622.453 499.537C619.63 502.361 615.8 503.947 611.807 503.947H209.062C205.069 503.947 201.239 502.361 198.416 499.537C195.592 496.714 194.006 492.884 194.006 488.891C194.006 484.898 195.592 481.068 198.416 478.245C201.239 475.421 205.069 473.835 209.062 473.835H213.532C213.276 472.938 213.143 472.011 213.136 471.078V265.464C213.136 261.996 214.514 258.67 216.966 256.218C219.419 253.765 222.744 252.388 226.212 252.388H594.657C598.125 252.388 601.451 253.765 603.903 256.217C606.355 258.67 607.732 261.995 607.732 265.463V471.078C607.733 472.011 607.6 472.94 607.337 473.835H611.807C613.784 473.835 615.742 474.224 617.569 474.981C619.395 475.738 621.055 476.847 622.453 478.245C623.851 479.643 624.96 481.303 625.717 483.129C626.474 484.956 626.863 486.914 626.863 488.891Z" fill="#3F3D56"/>
<path d="M418.235 369.823C413.632 369.823 409.132 368.458 405.305 365.901C401.478 363.343 398.495 359.708 396.733 355.456C394.972 351.203 394.511 346.524 395.409 342.009C396.307 337.495 398.523 333.348 401.778 330.093C405.033 326.838 409.18 324.621 413.694 323.723C418.209 322.825 422.888 323.286 427.141 325.047C431.394 326.809 435.029 329.792 437.586 333.619C440.143 337.446 441.508 341.946 441.509 346.549C441.502 352.719 439.047 358.635 434.684 362.998C430.321 367.361 424.406 369.816 418.235 369.823V369.823ZM418.235 327.176C414.403 327.176 410.658 328.312 407.472 330.441C404.286 332.569 401.802 335.595 400.336 339.135C398.87 342.676 398.486 346.571 399.234 350.329C399.981 354.087 401.826 357.539 404.536 360.249C407.245 362.958 410.698 364.803 414.456 365.551C418.214 366.298 422.109 365.915 425.65 364.448C429.19 362.982 432.215 360.499 434.344 357.312C436.473 354.126 437.609 350.381 437.609 346.549C437.603 341.412 435.56 336.488 431.928 332.856C428.296 329.224 423.371 327.181 418.235 327.176V327.176Z" fill="white"/>
<path d="M410.436 360.072C422.213 360.072 431.76 350.525 431.76 338.748C431.76 326.971 422.213 317.424 410.436 317.424C398.659 317.424 389.112 326.971 389.112 338.748C389.112 350.525 398.659 360.072 410.436 360.072Z" fill="white"/>
<path d="M482.654 40.8724C477.015 36.5177 472.43 30.9469 469.243 24.5747C468.104 22.1527 466.535 19.9583 464.61 18.099L451.382 28.2722L459.466 14.1922C438.762 1.67718 398.332 8.32406 398.332 8.32406C356.274 -14.0716 340.831 13.8845 335.447 31.6137C333.314 38.0296 329.553 43.7824 324.531 48.3097C314.157 58.2021 330.494 77.4437 330.494 77.4437V78.8036L334.394 105.29C334.394 105.29 338.293 87.7413 348.584 75.41C355.072 67.6353 365.632 63.0128 370.537 63.1085C433.834 64.3436 445.817 66.85 445.817 66.85C445.817 66.85 456.534 72.6071 461.266 75.0255C476.56 82.8405 472.83 111.139 472.83 111.139L484.258 60.9139C486.897 48.7391 485.431 43.1531 482.654 40.8724Z" fill="#2F2E41"/>
</svg>
