<svg version="1.2" baseProfile="tiny-ps" xmlns="http://www.w3.org/2000/svg" viewBox="0 0 523 619" width="523" height="619">
	<title>Logo</title>
	<style>
		tspan { white-space:pre }
		.shp0 { fill: #4d4d4d } 
	</style>
	<g id="Logo">
		<g id="&lt;Group&gt;">
			<path id="&lt;Path&gt;" class="shp0" d="M522.03 -0.09L522.03 600.52L522.03 618.72L437.1 618.72L437.1 600.52L437.1 254.72L255.1 254.72L255.1 491.32C255.1 561.57 197.95 618.72 127.7 618.72C57.44 618.72 0.29 561.57 0.29 491.32L0.29 169.78L139.83 169.78L139.83 254.72L85.23 254.72L85.23 491.32C85.23 514.74 104.28 533.79 127.7 533.79C151.11 533.79 170.16 514.74 170.16 491.32L170.16 84.85L0.29 84.85L85.23 -0.09L255.1 -0.09L255.1 169.78L437.1 169.78L437.1 -0.09L522.03 -0.09Z" />
		</g>
	</g>
</svg>